<?xml version="1.0"?><svg xmlns="http://www.w3.org/2000/svg" xmlns:xlink="http://www.w3.org/1999/xlink" version="1.1" viewBox="0 0 512 512" style="enable-background:new 0 0 512 512;" xml:space="preserve"><g id="_x30_1_x2C__recipe_book_x2C__Recipe_x2C__ingredients_x2C__book_x2C__cook_x2C__ingredient"><g><g><path style="fill:#5596FB;" d="M206,179.865V261c0,5.522,4.478,10,10,10h160c5.522,0,10-4.478,10-10v-81.135     c18.429-9.886,30-28.95,30-50.294c0-35.875-32.949-63.166-68.419-56.023C338.238,53.976,318.261,41,296,41     s-42.238,12.976-51.581,32.548C208.968,66.409,176,93.68,176,129.571C176,150.915,187.571,169.979,206,179.865z M226,251v-30h140     v30H226z M233.143,92.429c4.709,0,9.313,0.879,13.685,2.614c5.547,2.201,11.774-0.92,13.338-6.671     C264.547,72.255,279.283,61,296,61s31.453,11.255,35.835,27.371c1.566,5.76,7.8,8.87,13.338,6.671     c4.371-1.734,8.976-2.614,13.685-2.614c20.48,0,37.143,16.662,37.143,37.143c0,15.408-9.279,28.989-23.639,34.599     c-3.837,1.499-6.361,5.196-6.361,9.314V201H226v-27.515c0-4.118-2.524-7.815-6.361-9.314C205.279,158.56,196,144.979,196,129.571     C196,109.091,212.662,92.429,233.143,92.429z"/><path style="fill:#5596FB;" d="M396,291H196c-5.522,0-10,4.478-10,10s4.478,10,10,10h200c5.522,0,10-4.478,10-10     S401.522,291,396,291z"/><path style="fill:#5596FB;" d="M396,331H196c-5.522,0-10,4.478-10,10s4.478,10,10,10h200c5.522,0,10-4.478,10-10     S401.522,331,396,331z"/></g><g><path style="fill:#283954;" d="M456,401V11c0-5.523-4.478-10-10-10H146C96.374,1,56,41.374,56,91c0,134.29,0,349.008,0,350     c0,38.598,31.402,70,70,70h300c16.542,0,30-13.458,30-30c0-13.036-8.361-24.152-20-28.28v-23.44     C447.639,425.152,456,414.036,456,401z M436,372.72c-3.13-1.11-6.494-1.72-10-1.72H156V21h280V372.72z M76,91     c0-35.204,26.122-64.421,60-69.288V371h-10c-19.572,0-37.284,8.084-50,21.077V91z M426,491H126c-27.57,0-50-22.43-50-50     s22.43-50,50-50h300c5.514,0,10,4.486,10,10s-4.486,10-10,10H126c-16.542,0-30,13.458-30,30s13.458,30,30,30h300     c5.514,0,10,4.486,10,10S431.514,491,426,491z M126,451c-5.514,0-10-4.486-10-10s4.486-10,10-10h290v20H126z"/></g></g></g><g id="Layer_1"/></svg>